<svg width="56" height="38" viewBox="0 0 56 38" fill="none" xmlns="http://www.w3.org/2000/svg">
<g clip-path="url(#clip0_3_192)">
<path d="M0.24894 38H27.1008C27.2385 38 27.3496 37.8887 27.3496 37.7508C27.3496 30.1973 21.215 24.0542 13.6741 24.0542C6.13311 24.0542 0.000171661 30.199 0.000171661 37.7508C0.000171661 37.8887 0.111288 38 0.24894 38ZM26.8504 37.5016H0.501026C0.633701 30.3385 6.49299 24.5526 13.6757 24.5526C20.8585 24.5526 26.7177 30.3385 26.8504 37.5016Z" fill="#BFAF6A"/>
<path d="M3.41654 38C3.55419 38 3.66531 37.8887 3.66531 37.7508C3.66531 32.2224 8.15638 27.7238 13.6757 27.7238C19.195 27.7238 23.6861 32.2224 23.6861 37.7508C23.6861 37.8887 23.7972 38 23.9348 38C24.0725 38 24.1836 37.8887 24.1836 37.7508C24.1836 31.9483 19.4703 27.2255 13.6757 27.2255C7.88107 27.2255 3.16777 31.9466 3.16777 37.7508C3.16777 37.8887 3.27889 38 3.41654 38Z" fill="#BFAF6A"/>
<path d="M6.5963 37.9999C6.73396 37.9999 6.84507 37.8886 6.84507 37.7508C6.84507 33.9782 9.90988 30.9083 13.6762 30.9083C17.4425 30.9083 20.5073 33.9782 20.5073 37.7508C20.5073 37.8886 20.6185 37.9999 20.7561 37.9999C20.8938 37.9999 21.0049 37.8886 21.0049 37.7508C21.0049 33.7041 17.7178 30.4099 13.6762 30.4099C9.63458 30.4099 6.34754 33.7024 6.34754 37.7508C6.34754 37.8886 6.45865 37.9999 6.5963 37.9999Z" fill="#BFAF6A"/>
<path d="M9.77509 38C9.91274 38 10.0239 37.8887 10.0239 37.7508C10.0239 35.7341 11.6624 34.0928 13.6758 34.0928C15.6891 34.0928 17.3277 35.7341 17.3277 37.7508C17.3277 37.8887 17.4388 38 17.5764 38C17.7141 38 17.8252 37.8887 17.8252 37.7508C17.8252 35.4584 15.9644 33.5945 13.6758 33.5945C11.3871 33.5945 9.52633 35.4584 9.52633 37.7508C9.52633 37.8887 9.63744 38 9.77509 38Z" fill="#BFAF6A"/>
<path d="M27.1 37.9998H61.7947C62.9258 37.9998 63.8462 37.0779 63.8462 35.9449C63.8462 34.812 62.9258 33.89 61.7947 33.89H36.588C35.7306 33.89 35.034 33.1923 35.034 32.3335C35.034 31.4746 35.7306 30.7769 36.588 30.7769H46.94C48.0711 30.7769 48.9915 29.855 48.9915 28.722C48.9915 27.5891 48.0711 26.6671 46.94 26.6671H43.4523C42.5949 26.6671 41.8984 25.9694 41.8984 25.1106C41.8984 24.2517 42.5949 23.554 43.4523 23.554H75.4719C75.6096 23.554 75.7207 23.4427 75.7207 23.3048C75.7207 23.167 75.6096 23.0557 75.4719 23.0557H43.4523C42.3213 23.0557 41.4008 23.9776 41.4008 25.1106C41.4008 26.2435 42.3213 27.1655 43.4523 27.1655H46.94C47.7974 27.1655 48.494 27.8632 48.494 28.722C48.494 29.5809 47.7974 30.2786 46.94 30.2786H36.588C35.457 30.2786 34.5365 31.2005 34.5365 32.3335C34.5365 33.4664 35.457 34.3884 36.588 34.3884H61.7947C62.6521 34.3884 63.3487 35.0861 63.3487 35.9449C63.3487 36.8038 62.6521 37.5015 61.7947 37.5015H27.1C26.9624 37.5015 26.8513 37.6128 26.8513 37.7507C26.8513 37.8885 26.9624 37.9998 27.1 37.9998Z" fill="#BFAF6A"/>
</g>
<defs>
<clipPath id="clip0_3_192">
<rect width="56" height="38" fill="white" transform="matrix(-1 0 0 1 56 0)"/>
</clipPath>
</defs>
</svg>
